<svg viewBox="0 0 67.5 45.4"><rect width="67.5" height="45.4"></rect><path d="M50 28.6c0 .3.1.5.5.5h5.1c.3 0 .5.1.5.5v5.1c0 .2-.1.4-.5.4H36.4c-.3 0-.4-.2-.4-.4v-5.1c0-.3.1-.5.4-.5h6.1c.3 0 .5-.1.5-.5V17.3c0-.3-.2-.3-.2-.3-2.4.2-4.3.7-5.4 1H37c-.2 0-.2-.1-.2-.3v-5.8c0-.2.1-.3.4-.4 2.4-.6 6-1.4 12.4-1.4.3 0 .5.2.5.5v18zM22.7 10.3H12.6c-.2 0-.4.2-.4.5v23.9c0 .2.2.4.5.4h6.2c.3 0 .5-.1.5-.4v-6c0-.4.1-.5.5-.5h2.8c7.1 0 11-3.2 11-8.9s-3.9-9-11-9zm-.4 11.9h-2.5c-.3 0-.5-.1-.5-.5v-5c0-.3.1-.5.5-.5h2.5c3.6 0 4.2 1.8 4.2 2.9.1 1.2-.6 3.1-4.2 3.1z"></path></svg>