<svg viewBox="0 0 67.5 45.4"><rect width="67.5" height="45.4"></rect><path d="M36.3 30.1c0-.2.1-.3.2-.4l8.9-7.5c2.3-1.9 3.3-2.8 3.3-4.1 0-1.3-1.2-2-3.4-2-3.2 0-6.8 1.6-8.1 2.2-.1.1-.2.1-.2.1-.2 0-.2-.1-.2-.3v-5.7c0-.2.1-.3.2-.4.8-.5 4.1-2.2 8.8-2.2 6.9 0 10 3.6 10 7.4 0 3.8-1.6 5.4-5.3 8.6l-3.4 2.9c-.1.1-.1.1-.1.2s0 .1.2.1h8.6c.3 0 .5.1.5.5v5.1c0 .3-.2.5-.5.5h-19c-.3 0-.5-.1-.5-.5v-4.5zM22.7 10.3H12.6c-.2 0-.4.2-.4.5v23.9c0 .2.2.4.5.4h6.2c.3 0 .5-.1.5-.4v-6c0-.4.1-.5.5-.5h2.8c7.1 0 11-3.2 11-8.9 0-5.9-3.9-9-11-9zm-.3 11.9h-2.5c-.3 0-.5-.1-.5-.5v-5c0-.3.1-.5.5-.5h2.5c3.6 0 4.2 1.8 4.2 2.9 0 1.2-.7 3.1-4.2 3.1z"></path></svg>