<svg viewBox="0 0 67.5 45.4"><rect width="67.5" height="45.4"></rect><path d="M36.5 10.8c0-.3.1-.5.5-.5h17.8c.4 0 .5.1.5.5v4.9c0 .2 0 .4-.2.6l-4.2 3.9-.1.1c0 .1 0 .1.1.1 3.3 1 5.1 3 5.1 6.7 0 6.1-5.9 8.3-11 8.3-3.9 0-7.8-1.2-8.7-1.7-.1-.1-.2-.2-.2-.4v-5.7c0-.1 0-.2.1-.2 0 0 .1 0 .2.1 1 .4 5 1.8 8.2 1.8 3.6 0 4.2-1.8 4.2-2.7 0-1.5-.8-2.8-4.7-2.8h-1.4c-.2 0-.4-.1-.4-.4v-2.2c0-.2 0-.2.1-.4l4.5-4.5v-.1s0-.1-.1-.1H37c-.2 0-.5-.1-.5-.5v-4.8zM22.7 10.3H12.6c-.2 0-.4.2-.4.5v23.9c0 .2.2.4.5.4h6.2c.3 0 .5-.1.5-.4v-6c0-.4.1-.5.5-.5h2.8c7.1 0 11-3.2 11-8.9 0-5.9-3.9-9-11-9zm-.4 11.9h-2.5c-.3 0-.5-.1-.5-.5v-5c0-.3.1-.5.5-.5h2.5c3.6 0 4.2 1.8 4.2 2.9.1 1.2-.6 3.1-4.2 3.1z"></path></svg>