<svg viewBox="0 0 67.5 45.4"><rect width="67.5" height="45.4"></rect><path d="M43.3 10.3h6.9c.3 0 .4.1.2.4-2.9 3.9-6.5 11.1-7 13.8 0 .2 0 .2.2.2h4.6c.1 0 .2-.1.2-.2V20c0-.2.2-.4.5-.4h6c.3 0 .5.1.5.4v14.8c0 .3-.2.4-.5.4h-6c-.3 0-.5-.1-.5-.4v-3.9c0-.2-.1-.3-.3-.3H35.7c-.2 0-.4-.2-.4-.5v-.3c.5-6.5 4.6-14.7 7.5-19.1.1-.3.3-.4.5-.4M22.7 10.3H12.6c-.2 0-.4.2-.4.5v23.9c0 .2.2.4.5.4h6.2c.3 0 .5-.1.5-.4v-6c0-.4.1-.5.5-.5h2.8c7.1 0 11-3.2 11-8.9 0-5.9-3.9-9-11-9zm-.4 11.9h-2.5c-.3 0-.5-.1-.5-.5v-5c0-.3.1-.5.5-.5h2.5c3.6 0 4.2 1.8 4.2 2.9s-.6 3.1-4.2 3.1z"></path></svg>