<svg viewBox="0 0 29.7 20"><rect width="29.7" height="20"></rect><path d="M10.1 15.2c.3-.1.6-.4.6-.9 0-.8-.7-1.2-1.7-1.2H7.3s-.1 0-.1.1v4s0 .1.1.1h1.8c1 0 1.7-.4 1.7-1.2 0-.4-.3-.8-.7-.9zm-1.7-1.1H9c.4 0 .6.2.6.4s-.2.4-.6.4h-.6v-.8zm.6 2.4h-.6v-.8H9c.4 0 .6.2.6.4s-.1.4-.6.4zM14.5 13.2c.1 0 .1 0 0 0l.1.9s0 .1-.1.1h-2v.6h1.7s.1 0 .1.1v.8s0 .1-.1.1h-1.7v.7h1.9s.1 0 .1.1v.8s0 .1-.1.1h-3.1s-.1 0-.1-.1v-4.1s0-.1.1-.1h3.2zM17.5 15.8c-.2-.6-.4-1.1-.6-1.6-.2.5-.4 1.1-.6 1.6h1.2zm.5 1.6c-.1 0-.1 0-.1-.1 0-.2 0-.4-.1-.6h-1.6c0 .2-.1.4-.1.6l-.1.1h-1s-.1 0-.1-.1c.1-1.1.8-3.3 1.3-4l.1-.1h1.4s.1 0 .1.1c.5.7 1.2 2.9 1.3 4 0 0 0 .1-.1.1h-1zM22.5 13.2c.1 0 .1 0 0 0l.1.9s0 .1-.1.1h-1.3v3.1s0 .1-.1.1H20s-.1 0-.1-.1v-3.1h-1.2s-.1 0-.1-.1v-.9s0-.1.1-.1h3.8zM19.8 8.1c0-.5-.4-1-1.1-1-.7 0-1.1.5-1.1 1s.4 1 1.1 1c.7 0 1.1-.5 1.1-1m2.1.1c0 1.6-1.4 2.8-3.3 2.8-1.8 0-3.2-1.6-3.2-3.2C15.4 5.9 17 3.9 18 3H20.4c.1 0 .2.1.1.2-1 .9-2 2.1-2.3 2.6.2-.1.4-.2.7-.2 1.6-.1 3 1 3 2.6M11.2 3H8c-.1 0-.1 0-.1.1v7.7c0 .1.1.1.1.1h2c.1 0 .1 0 .1-.1V8.9c0-.1 0-.2.1-.2h.9c2.3 0 3.5-1 3.5-2.9C14.7 4 13.5 3 11.2 3zm-.1 3.8h-.8c-.1 0-.1 0-.1-.1V5.1c0-.1 0-.1.1-.1h.8c1.1 0 1.4.6 1.4.9s-.2.9-1.4.9z"></path></svg>